<?xml version="1.0" encoding="UTF-8"?>
<svg xmlns="http://www.w3.org/2000/svg" width="237" height="16" viewBox="0 0 237 16" fill="none"><g clip-path="url(#clip0_230_349)"><path d="M0 0H7.80337C9.23423 0 10.4092 0.165828 11.3284 0.492745C12.2476 0.819662 12.9914 1.26503 13.5552 1.82884C14.0432 2.31685 14.408 2.86171 14.6497 3.47291C14.8913 4.07936 15.0145 4.79479 15.0145 5.61919V5.66657C15.0145 6.83684 14.735 7.82707 14.1712 8.63251C13.6073 9.43796 12.8398 10.0776 11.8685 10.5466L15.5878 15.9763H9.49481L6.48149 11.4137H5.33965V15.9763H0V0ZM7.64228 7.59491C8.2819 7.59491 8.78412 7.45751 9.14895 7.18271C9.51377 6.90791 9.69855 6.52887 9.69855 6.04086V5.99349C9.69855 5.47705 9.51377 5.09328 9.14895 4.84217C8.78412 4.59106 8.29138 4.46787 7.66597 4.46787H5.33965V7.59491H7.64228Z" fill="#F4F4F7"></path><path d="M42.8168 0.00952148H29.0957V4.03676H42.8168V0.00952148Z" fill="#F4F4F7"></path><path d="M42.8216 11.968H29.1006V15.9953H42.8216V11.968Z" fill="#F4F4F7"></path><path d="M42.8168 5.98401H29.0957V10.0113H42.8168V5.98401Z" fill="#F4F4F7"></path><path d="M97.4071 0H83.686V4.02724H97.4071V0Z" fill="#F4F4F7"></path><path d="M125.162 0H110.493V4.50104H115.34V16H120.315V4.50104H125.162V0Z" fill="#F4F4F7"></path><path d="M138.343 0H144.459C146.042 0 147.43 0.184779 148.624 0.559076C149.818 0.933373 150.808 1.45928 151.6 2.14628C152.391 2.82855 152.983 3.65768 153.381 4.61948C153.774 5.58602 153.973 6.66153 153.973 7.84602V7.8934C153.973 9.07788 153.769 10.1676 153.367 11.1578C152.964 12.1481 152.353 12.9961 151.543 13.7116C150.728 14.427 149.719 14.9813 148.51 15.3793C147.302 15.7726 145.89 15.9716 144.279 15.9716H138.348V0H138.343ZM143.682 4.65265V11.3142H144.573C145.805 11.3142 146.781 11.0536 147.506 10.5277C148.226 10.0018 148.591 9.16316 148.591 8.00711V7.95973C148.591 6.80367 148.231 5.96506 147.506 5.43915C146.786 4.91324 145.805 4.65265 144.573 4.65265H143.682Z" fill="#EE3F8A"></path><path d="M168.732 15.9716H163.027L169.755 0.00952148H175.047L181.78 15.9716H168.732ZM174.811 12.2997L172.361 6.23517L169.983 12.276L174.811 12.2997Z" fill="#EE3F8A"></path><path d="M223.251 15.9716H217.547L224.279 0.00952148H229.572L236.304 15.9716H223.256H223.251ZM229.33 12.2997L226.881 6.23517L224.502 12.276L229.33 12.2997Z" fill="#EE3F8A"></path><path d="M207.071 0H192.402V4.50104H197.249V16H202.224V4.50104H207.071V0Z" fill="#EE3F8A"></path><path d="M97.4071 11.9585H83.686V15.9857H97.4071V11.9585Z" fill="#F4F4F7"></path><path d="M97.4071 5.97449H83.686V10.0017H97.4071V5.97449Z" fill="#F4F4F7"></path><path d="M70.1307 4.03676V0.00952148H56.4097V3.04654V4.03676V5.98406V6.99797V10.0113H65.8666V11.9681H56.4097V15.9953H70.1307V12.8683V11.9681V10.0113V8.91684V5.98406H60.6738V4.03676H70.1307Z" fill="#F4F4F7"></path></g><defs><clipPath id="clip0_230_349"><rect width="236.3" height="16" fill="white"></rect></clipPath></defs></svg>
